<?xml version="1.0" encoding="UTF-8"?>
<svg id="Layer_2" data-name="Layer 2" xmlns="http://www.w3.org/2000/svg" xmlns:xlink="http://www.w3.org/1999/xlink" viewBox="0 0 61.4 60.4">
  <defs>
    <style>
      .cls-1 {
        fill: #a6ce39;
      }

      .cls-2 {
        fill: url(#radial-gradient);
      }

      .cls-3 {
        fill: url(#linear-gradient);
      }
    </style>
    <linearGradient id="linear-gradient" x1="32.58" y1="11.85" x2="32.76" y2="12.08" gradientUnits="userSpaceOnUse">
      <stop offset=".11" stop-color="#2d65b0"/>
      <stop offset=".35" stop-color="#1f9ecc"/>
      <stop offset=".6" stop-color="#4ebc86"/>
      <stop offset=".87" stop-color="#7cc8a0"/>
    </linearGradient>
    <radialGradient id="radial-gradient" cx="30.7" cy="30.2" fx="30.7" fy="30.2" r="30.45" gradientUnits="userSpaceOnUse">
      <stop offset="0" stop-color="#2bace2"/>
      <stop offset="1" stop-color="#2b3084"/>
    </radialGradient>
  </defs>
  <g id="Layer_1-2" data-name="Layer 1">
    <path class="cls-3" d="m32.56,12.07c-.07,0-.13-.02-.18-.04.18-.07.36-.14.54-.2-.04.14-.11.24-.36.24Z"/>
    <g>
      <path class="cls-2" d="m61.37,28.93c-.02-.36-.04-.72-.07-1.08-.03-.4-.07-.8-.12-1.2-.04-.4-.1-.8-.16-1.2-.02-.13-.04-.26-.06-.39h-.01c-1.72-.62-3.78-1.16-6.12-1.44-3.1-.36-6.69-.24-10.6.85,0,0-1.36,2.52-3.88,3.4-.44.15-.91.26-1.42.29-.87.05-1.83-.1-2.88-.56h-.01c-.18-.08-.37-.17-.56-.27,0,0-.98-.84,1.42-2.63.47-.35,1.07-.74,1.84-1.17,0,0,.72-2.13-4.62-2.47-.65-.04-1.39-.06-2.22-.04-.81.02-1.72.06-2.72.15,0,0-.74.11-1.76.55-1.49.64-3.59,1.98-5,4.72,0,0-2.44,2.1-3.87-.24,0,0,.4-1.54,1.57-3.67,1.11-2.03,2.51-3.83,4.13-5.38.1-.1.2-.19.3-.28.45-.41.91-.81,1.39-1.18,1.07-.83,2.22-1.57,3.42-2.2.73-.38,1.49-.73,2.26-1.03.05.02.11.03.18.04.25,0,.32-.1.36-.24.86-.32,1.74-.59,2.63-.8,2.15-.51,4.39-.73,6.65-.62.69.03,1.43.08,2.21.14.9.07,1.84.17,2.82.29.5.06,1.01.13,1.52.21,1.8.27,3.68.63,5.56,1.12,0,0,.19.08.54.24.37.17.93.42,1.61.75.29.14.61.29.94.46-.3-.47-.62-.94-.95-1.4C50.12,4.99,41,0,30.7,0,13.74,0,0,13.52,0,30.2c0,5.78,1.65,11.17,4.51,15.76l5.19.14s4.09.8,7.28-3.25c0,0,.22-.4.63-.84.82-.89,2.37-1.97,4.45-.63h0c.19.12.38.26.58.43,0,0,.43.47.43,1.18,0,.51-.21,1.14-.94,1.82-.22.2-.48.41-.8.62l-3.13,2.8s3.68,1.9,9.11.05c.5-.16,1.02-.37,1.56-.61,1.63-.74,3.39-1.82,5.23-3.37,0,0,.7-.34,1.49-.62.76-.26,1.59-.47,1.98-.28,0,0,2.25.05,2.22,1.52,0,0,.23.89.02,2.17-.27,1.74-1.34,4.2-4.86,6.09,0,0-1.91,1.2-4.28,2.17-1.22.51-2.55.95-3.82,1.14l-10.01.65c4.16,2.09,8.87,3.26,13.86,3.26,1.25,0,2.47-.07,3.68-.23,5.79-.66,11.08-2.93,15.42-6.34,6.85-5.35,11.33-13.53,11.58-22.76.01-.26.02-.52.02-.77,0-.46-.01-.92-.03-1.37Zm-25.22,7.57l-5.2,5.72c-.07.08-.16.12-.26.12-.09,0-.19-.04-.26-.12l-3.28-3.63-1.9-2.1c-.68-.75-1.06-1.75-1.06-2.82s.37-2.06,1.05-2.81c.68-.76,1.59-1.17,2.55-1.17s1.87.42,2.55,1.17l.36.4.36-.39c.68-.76,1.58-1.17,2.55-1.17.91,0,1.77.37,2.43,1.05.04.03.08.07.11.11.68.76,1.06,1.76,1.05,2.82,0,1.07-.37,2.07-1.05,2.82Z"/>
      <g>
        <path class="cls-1" d="m34.12,21.06s-.01.09-.02.14c-.1.5-.5.3-.9.2-.3-.1-.6.1-.9-.2-.08-.08-.23-.14-.4-.18.83-.02,1.57,0,2.22.04Z"/>
        <g>
          <path class="cls-1" d="m54.09,12.84c-.35-.16-.54-.24-.54-.24-1.88-.49-3.76-.85-5.56-1.12-.19-.41-.35-.81-.39-1.08-.1-.7-1.8-1.2-2.2-1.3-.3-.1-.7.2-.5.4.3.3.7.3.4.5-.3.2-.9.4-.5.4s.7.3.9.3c.12,0,.44.28.77.57-.98-.12-1.92-.22-2.82-.29-.61-.45-1.87-.83-2.65-1.68-1-1.1.9-1.2,1.2-1.2s.4-.4.4-.8-.1-.1-1,0c-.9.1-1.3.5-.7-.3.6-.7-3.4-2.4-3.9-3.1s-1.1.6-1.5,1c-.5.4-.6-.2-1-.5-.5-.3-1.1-.2-1.4-.1-.3,0-1.2.3-1.5.4-.3.1-.9.4-1.8.1-.9-.3-1-.5-1.1-.8,0-.4-.8-.5-1.2-.2-.5.3-1.3.7-1.9.5-.6-.2-.8.5-.9.8-.1.3-.4.2-.7.5-.4.3-.3.1-.5.1h-.7c-.2,0-.4.5-.5.5s0,.4-.2.7c-.1.3-.3,0-.6.1-.2.1-.5.2-1,.2s-.1,1-.2,1.2c-.1.1-1.3,1.3-1.7,1.8-.4.5-.6.6-1.1.8-.4.2-1.1,0-.9-.1.1,0,.4-.4.6-.7s.3-.4.3-.6-.6-.1-1-.3c-.4-.2-.6-.5-.7-.9-.1-.4.9-1.3,1.2-1.2.3,0,.8.5.7-.9-.1-1.4.3-.8.5-1.3s.5-.3,1.3-1c.4-.4-.1-1.1-.6-1.5C22.6,1,26.6.2,30.8.2c8.8,0,16.8,3.7,22.4,9.6.1.2.2.3.3.5.2.4.5,1,.6,1.8.05.37-.01.57-.01.74Z"/>
          <path class="cls-1" d="m56.7,14.08s-.04-.02-.06-.03c-.33-.17-.65-.32-.94-.46-.1-.19-.1-.56-.01-.94,0-.02.01-.03.01-.05.35.48.68.98,1,1.48Z"/>
          <path class="cls-1" d="m61.4,30.3c0,.25-.01.51-.02.77-.03.77-.1,1.58-.18,2.33-1,.5-1.4,1.9-2.1,2.2-.8.4-2-1.5-2.7-2.9-.7-1.4-.9-5-.8-6.1.2-1.1-.4-1.6-.7-2.4-.07-.19-.09-.39-.07-.58,2.34.28,4.4.82,6.12,1.43.02.14.05.27.07.4.06.4.12.8.16,1.2.05.39.09.8.12,1.2.03.36.05.72.07,1.08.02.45.03.91.03,1.37Z"/>
          <path class="cls-1" d="m24.4,14.6c.2-.1.6-.1.7.3.08.33.52.39.77.69.03.03.05.06.07.1-.48.37-.94.77-1.39,1.18-.03-.02-.05-.04-.06-.06-.11-.16-.19-.39-.19-.71,0-.5.1-.4-.5-.7-.6-.3.4-.8.6-.8Z"/>
          <path class="cls-1" d="m28.6,47.2c-.12.12.05.24.27.47-.54.24-1.06.45-1.56.61-.18-.17-.25-.32-.41-.58-.3-.5-1.4-1.3-1.8-1.8-.4-.4-1.58-.79-2.97-1.09.73-.68.94-1.31.94-1.82.31.23.71.51.93.51.3,0,.6-.4,1.3-1,.7-.6.5-.6,1.1.4s-.1,1.2-.3,1.8c-.3.7.5.4,1.6.4s.8.5,1.2.9c.3.3-.1.9-.3,1.2Z"/>
          <path class="cls-1" d="m36.9,29.7c-.29.19-.48.66-.86,1.05-.66-.68-1.52-1.05-2.43-1.05-.97,0-1.87.41-2.55,1.17l-.36.39-.36-.4c-.68-.75-1.59-1.17-2.55-1.17s-1.87.41-2.55,1.17c-.68.75-1.05,1.75-1.05,2.81s.38,2.07,1.06,2.82l1.9,2.1c-.12,0-.26.01-.45.01-.7,0-.4.1-.6.3s-.5,0-.7,0c-.3,0-.2-.1-.6-.3-.3-.2-.5.1-1.3.2-.8.1-1.4.9-1.4,1.9-.03.32-.04.53-.04.68-2.08-1.34-3.63-.26-4.45.63-.31-.28-.5-.6-.41-.91.3-1,.1-1.5-.4-2.1-.4-.6-.8-2.1-.8-2.5s-.4-1.2-.8-1c-.3.2,1,3.5,1,3.5-2-1.5-2.1-4.2-2.6-7.2s1-4.8,1.8-5.8c.7-1.1.2-.9.3-2.8.1-1.9,1.1-3,1.1-5s-1.3-2.1-1.7-2.5c-.4-.4-1.1-.1-1.7-.5-.6-.4-.3-1-.3-1,0,0,.5.2.6.3s.3.2.5.2c.3.1.2-.1.2-.1,0,0,.2-.5.3-.9.1-.4.3-.5.5-.8s.3-.3.7-.2c.4.1.2.1.3.2.1,0,.9,0,.9-.4s.1-.5.1-.6.7,0,.8.1.5.3.8.2c.3-.1,0-.5.5-.5s.6-.2.8.1c.2.3.3.3.5.6.1.2-.1,1.4.2,1.7.3.3,1.8,1.9,2,2.1.14.14.9.54,1.39.9.02.02.04.03.06.05-1.62,1.55-3.02,3.35-4.13,5.38-1.17,2.13-1.57,3.67-1.57,3.67,1.43,2.34,3.87.24,3.87.24,1.41-2.74,3.51-4.08,5-4.72-.16.29-.23.6-.42.98-.3.6.4,1.2.5,1.4.1.2,1.2.3,1.3.4.1.1.5.6.5,1s.1.5.5.8c.4.3.6,1.5.6,1s.3-.7.3-1.3,0-.9.1-1,.3-.3.4-.6c.1-.3-.2-.3-.4-.7-.2-.4-.1-.9-.1-1.7s-.2-.5.9-.3c1,.3.7.2,1.6,1,.9.8.7.4,1.3.5.6.2.8.3,1.5.9.34.24.65.44.9.6-2.4,1.79-1.42,2.63-1.42,2.63.19.1.38.19.56.27-.65.14-1.1.24-1.34.4-.3.2-.7.9-.4,1.1.4.3.6-.2,1-.7.4-.5.7-.3.8-.1.1.2-.3.9.3.8.6-.1.4-.5.8-.4.3.1.3.2.5,1,.2.7-.5-.2-.8,0Z"/>
          <path class="cls-1" d="m51.6,50.2c-1,.5-1.1,2-1.6,2.4-.1.1-.19.65-.2,1.23v.07c-4.3,3.5-9.6,5.8-15.4,6.5-.01-.09-.02-.16-.02-.23-.04-.67.13-.69.22-.87.1-.2-.1-.9-.1-.9-1-.2-1.4-.9-1.4-.9-.61-1.39-1.59-1.65-2.43-2.15,2.37-.97,4.28-2.17,4.28-2.17,3.52-1.89,4.59-4.35,4.86-6.09.83.01,1.65.62,2.29.81.7.2,2.1,0,2.8.1.6.1.7,1.5,2.1,1.7,1.3.2,3.3-1.2,4.1-1.3s1.5,1.3.5,1.8Z"/>
          <path class="cls-1" d="m32.5,42.8c-.4-.1-1.3-.1-1.6-.1s-.8-.2-1.2-.5-.6-.1-.9-.1c-.4,0-.3.4-.3.4,0,0,.2.2.4.3.2,0,.2-.1.7-.1s.2.1.8.3.4.1.9.4.3.1.8.6c.5.4.5,0,.9-.1s.5-.3.5-.5c-.2-.2-.6-.5-1-.6Z"/>
          <path class="cls-1" d="m35.59,43.68c-.79.28-1.49.62-1.49.62-.3-.1-.4,0-.4-.3s.1-.5.1-.5c0,0,.7-.1,1-.1.29-.1.68-.1.79.28Z"/>
          <path class="cls-1" d="m40.3,28.5s-.7-.1-1-.2c-.1-.03-.23-.08-.37-.14.51-.03.98-.14,1.42-.29.01,0,.03.02.05.03.5.2.1.6-.1.6Z"/>
          <path class="cls-1" d="m31.62,12.46c-.77.3-1.53.65-2.26,1.03.08-.09.17-.23.24-.49.2-.7.6-1.2,1.3-1.1.63.18.29.44.72.56Z"/>
          <path class="cls-1" d="m34.79,11.46c-.89.21-1.77.48-2.63.8.06-.24,0-.6.64-.66.9,0,1.39-.24,1.99-.14Z"/>
        </g>
      </g>
    </g>
  </g>
</svg>